#tb 0: 1/25
#media_type 0: video
#codec_id 0: mpeg4
#dimensions 0: 352x288
#sar 0: 0/1
#tb 1: 1/44100
#media_type 1: audio
#codec_id 1: ac3
#sample_rate 1: 44100
#channel_layout_name 1: mono
1,       -256,       -256,     1536,      416, 0x3a70c9c4
0,          0,          0,        1,    27867, 0x1426a0d6, S=1,        8
1,       1280,       1280,     1536,      418, 0xb036bcb2
0,          1,          1,        1,     9806, 0xbebc2826, F=0x0, S=1,        8
1,       2816,       2816,     1536,      418, 0x6dd4cb46
0,          2,          2,        1,    10453, 0x4a188450, F=0x0, S=1,        8
1,       4352,       4352,     1536,      418, 0xc643c979
0,          3,          3,        1,    10248, 0x4c831c08, F=0x0, S=1,        8
1,       5888,       5888,     1536,      418, 0xb045ce4e
0,          4,          4,        1,    11680, 0x5508c44d, F=0x0, S=1,        8
1,       7424,       7424,     1536,      418, 0x768bd1b3
0,          5,          5,        1,    11046, 0x096ca433, F=0x0, S=1,        8
1,       8960,       8960,     1536,      418, 0x1c7dcfec
1,      10496,      10496,     1536,      418, 0x0cc8d01a
0,          6,          6,        1,     9888, 0x440a5b45, F=0x0, S=1,        8
1,      12032,      12032,     1536,      418, 0xcdc6c498
0,          7,          7,        1,    10165, 0x116d4909, F=0x0, S=1,        8
1,      13568,      13568,     1536,      418, 0xca68c393
0,          8,          8,        1,    11704, 0xb334a24c, F=0x0, S=1,        8
1,      15104,      15104,     1536,      418, 0x4f53d2b7
0,          9,          9,        1,    11059, 0x49aa6515, F=0x0, S=1,        8
1,      16640,      16640,     1536,      418, 0x6c1ebeec
0,         10,         10,        1,     8764, 0x8214fab0, F=0x0, S=1,        8
1,      18176,      18176,     1536,      418, 0xd2fdc84f
0,         11,         11,        1,     9328, 0x92987740, F=0x0, S=1,        8
1,      19712,      19712,     1536,      418, 0xb224c77d
0,         12,         12,        1,    27955, 0xe25edb6c, S=1,        8
1,      21248,      21248,     1536,      418, 0xf3cfd06f
1,      22784,      22784,     1536,      418, 0xc87bca65
0,         13,         13,        1,    11181, 0x3cf56687, F=0x0, S=1,        8
1,      24320,      24320,     1536,      418, 0x2c32d1a0
0,         14,         14,        1,    12002, 0x87942530, F=0x0, S=1,        8
1,      25856,      25856,     1536,      418, 0x09f1bc63
0,         15,         15,        1,    10122, 0xbb10e8d9, F=0x0, S=1,        8
1,      27392,      27392,     1536,      418, 0xeddac27a
0,         16,         16,        1,     9715, 0xa4a1325c, F=0x0, S=1,        8
1,      28928,      28928,     1536,      418, 0xe7b5c3a8
0,         17,         17,        1,    11222, 0x15118a48, F=0x0, S=1,        8
1,      30464,      30464,     1536,      418, 0x1a39cc81
0,         18,         18,        1,    11384, 0xd4304391, F=0x0, S=1,        8
1,      32000,      32000,     1536,      418, 0xd287ccbd
0,         19,         19,        1,     9141, 0xabd1eb90, F=0x0, S=1,        8
1,      33536,      33536,     1536,      418, 0x63b0c130
1,      35072,      35072,     1536,      418, 0xc266bbfc
0,         20,         20,        1,    10049, 0x5b388bc2, F=0x0, S=1,        8
1,      36608,      36608,     1536,      418, 0xd6ffced8
0,         21,         21,        1,     9049, 0x214505c3, F=0x0, S=1,        8
1,      38144,      38144,     1536,      418, 0x20f6d429
0,         22,         22,        1,     9101, 0xdba6e5ba, F=0x0, S=1,        8
1,      39680,      39680,     1536,      418, 0xbf19c759
0,         23,         23,        1,    10351, 0x0aea5644, F=0x0, S=1,        8
1,      41216,      41216,     1536,      418, 0x3cb4bcd2
0,         24,         24,        1,    27864, 0xd0287877, S=1,        8
1,      42752,      42752,     1536,      418, 0x25d6ca03
0,         25,         25,        1,     9026, 0x01ec7d47, F=0x0, S=1,        8
1,      44288,      44288,     1536,      418, 0x51b6c551
1,      45824,      45824,     1536,      418, 0x9591b4ad
0,         26,         26,        1,     8894, 0x5917d83b, F=0x0, S=1,        8
1,      47360,      47360,     1536,      418, 0x691bc14e
0,         27,         27,        1,    10119, 0x3a2ede3a, F=0x0, S=1,        8
1,      48896,      48896,     1536,      418, 0xe4f9ccd6
0,         28,         28,        1,    10290, 0xea641449, F=0x0, S=1,        8
1,      50432,      50432,     1536,      418, 0x0cdec389
0,         29,         29,        1,    10922, 0xeb7e9700, F=0x0, S=1,        8
1,      51968,      51968,     1536,      418, 0xf3f9c8a7
0,         30,         30,        1,     9680, 0x929d1f59, F=0x0, S=1,        8
1,      53504,      53504,     1536,      418, 0x96a2c7ab
0,         31,         31,        1,     8733, 0x8fa8fc4e, F=0x0, S=1,        8
1,      55040,      55040,     1536,      418, 0xe71eba63
0,         32,         32,        1,     9878, 0xe3f555e9, F=0x0, S=1,        8
1,      56576,      56576,     1536,      418, 0xb001c505
1,      58112,      58112,     1536,      418, 0x91e7c701
0,         33,         33,        1,    10926, 0x2a2bed74, F=0x0, S=1,        8
1,      59648,      59648,     1536,      418, 0x5625bada
0,         34,         34,        1,    12170, 0x70c8ab23, F=0x0, S=1,        8
1,      61184,      61184,     1536,      418, 0xf2d1c7d2
0,         35,         35,        1,    11631, 0x7d5e8297, F=0x0, S=1,        8
1,      62720,      62720,     1536,      418, 0x6853c8a2
0,         36,         36,        1,    28056, 0x10bef294, S=1,        8
1,      64256,      64256,     1536,      418, 0x41d4c7d1
0,         37,         37,        1,    11067, 0x490af43b, F=0x0, S=1,        8
1,      65792,      65792,     1536,      418, 0xc94ec631
0,         38,         38,        1,    11046, 0x6dba2441, F=0x0, S=1,        8
1,      67328,      67328,     1536,      418, 0xd4bdd046
0,         39,         39,        1,    10922, 0x069cfa74, F=0x0, S=1,        8
1,      68864,      68864,     1536,      418, 0xfaeecfe9
1,      70400,      70400,     1536,      418, 0x5b5ec63a
0,         40,         40,        1,    11477, 0x18baebc1, F=0x0, S=1,        8
1,      71936,      71936,     1536,      418, 0x92c5c719
0,         41,         41,        1,    10285, 0x792623a6, F=0x0, S=1,        8
1,      73472,      73472,     1536,      418, 0x81e5c192
0,         42,         42,        1,     9961, 0x69d8a3b1, F=0x0, S=1,        8
1,      75008,      75008,     1536,      416, 0xf6facc08
0,         43,         43,        1,    11162, 0x6f3788c6, F=0x0, S=1,        8
1,      76544,      76544,     1536,      418, 0xa996c1ec
0,         44,         44,        1,    10696, 0x524ad4f8, F=0x0, S=1,        8
1,      78080,      78080,     1536,      418, 0x5305c0ab
0,         45,         45,        1,    10319, 0x9d6ff8f7, F=0x0, S=1,        8
1,      79616,      79616,     1536,      418, 0x3810d00b
0,         46,         46,        1,     8796, 0xb0cc869e, F=0x0, S=1,        8
1,      81152,      81152,     1536,      418, 0x76dbc80b
1,      82688,      82688,     1536,      418, 0x7ab4c5e9
0,         47,         47,        1,     8779, 0x2027399c, F=0x0, S=1,        8
1,      84224,      84224,     1536,      418, 0xaf38c11a
0,         48,         48,        1,    28143, 0x1df268c5, S=1,        8
1,      85760,      85760,     1536,      418, 0xaea7c9eb
0,         49,         49,        1,    10073, 0xedb9f031, F=0x0, S=1,        8
